<svg width="9" height="16" viewBox="0 0 9 16" fill="none" xmlns="http://www.w3.org/2000/svg">
<g clip-path="url(#clip0_1_443)">
<path d="M6.44236 8.93784L2.88226 5.3778C2.79992 5.2954 2.69 5.25 2.5728 5.25C2.4556 5.25 2.34568 5.2954 2.26334 5.3778L2.00116 5.63992C1.83056 5.81071 1.83056 6.0883 2.00116 6.25884L4.99067 9.24834L1.99784 12.2412C1.9155 12.3236 1.87004 12.4334 1.87004 12.5506C1.87004 12.6678 1.9155 12.7777 1.99784 12.8601L2.26002 13.1222C2.34243 13.2046 2.45228 13.25 2.56948 13.25C2.68668 13.25 2.7966 13.2046 2.87894 13.1222L6.44236 9.55891C6.5249 9.47624 6.57023 9.36587 6.56997 9.24854C6.57023 9.13075 6.5249 9.02044 6.44236 8.93784Z" fill="white"/>
</g>
<defs>
<clipPath id="clip0_1_443">
<rect width="8" height="8" fill="white" transform="translate(0.220001 5.25)"/>
</clipPath>
</defs>
</svg>
